# xmcd
#
# Track frame offsets: 
#        150
#        16563
#        32514
#        48112
#        67387
#        89201
#        102747
#        120303
#        152631
#        165470
#        180975
#        193877
#        215185
#        222424
#        227444
#        237018
#
# Disc length: 3491 seconds
#
# Revision: 0
# Processed by: cddbd v1.5.2PL0 Copyright (c) Steve Scherf et al.
# Submitted via: ExactAudioCopy v0.99pb4
#
DISCID=d80da110
DTITLE=The Sad Bastard Book Club - The Collected Short Stories of Carr
DTITLE=ie Anne Crowe
DYEAR=2008
DGENRE=Country
TTITLE0=The Pauper Choir of Mathias, AZ
TTITLE1=Good Fences Make for Good Grudges
TTITLE2=Do You Know What Two Cents Would Have Bought You in My Day
TTITLE3=Our Sweet Victory, All Sickly and Toothless
TTITLE4=Our Sweet Victory, All Radiant and Still
TTITLE5=Too Much Whisky and Too Much Wine Have Led Me Into a Box of Pi
TTITLE5=ne
TTITLE6=The Pauper Choir of Mathias, AZ (original version)
TTITLE7=This May Sound Perverse, But that is the Sexiest Noose I've Ev
TTITLE7=er Seen
TTITLE8=Maypole Mayday
TTITLE9=All Tarted Up for a Regrettable Night Out
TTITLE10=Don't Worry My Sick Little Tommy, That Coldness That You Feel
TTITLE10=is Only Death's Icy Breath On Your Neck
TTITLE11=Eviction Party in the United State of Nebraska!
TTITLE12=The Sewer Rat Jamboree
TTITLE13=The Pleasure Machines
TTITLE14=R Before M Except After D
TTITLE15=Thank You Corpses! Your Help Has Been Vital to Our Efforts.  
TTITLE15=We Are Sorry About the Killing you Part... We Got a Bit Carri
TTITLE15=ed Aw
EXTD=
EXTT0=
EXTT1=
EXTT2=
EXTT3=
EXTT4=
EXTT5=
EXTT6=
EXTT7=
EXTT8=
EXTT9=
EXTT10=
EXTT11=
EXTT12=
EXTT13=
EXTT14=
EXTT15=
PLAYORDER=
